<svg xmlns="http://www.w3.org/2000/svg" xmlns:xlink="http://www.w3.org/1999/xlink" width="72" height="72" viewBox="0 0 72 72">
  <defs>
    <clipPath id="clip-path">
      <rect id="Rectangle_3" data-name="Rectangle 3" width="72" height="72" transform="translate(320)" fill="#fff" stroke="#707070" stroke-width="1"/>
    </clipPath>
  </defs>
  <g id="hatomi-logo" transform="translate(-320)" clip-path="url(#clip-path)">
    <g id="Group_8" data-name="Group 8" transform="translate(329 9)">
      <g id="Group_1" data-name="Group 1">
        <path id="Path_1" data-name="Path 1" d="M142.1,18.2a8.1,8.1,0,1,1,8.1-8.1A8.11,8.11,0,0,1,142.1,18.2Zm0-13.5a5.4,5.4,0,1,0,5.4,5.4A5.405,5.405,0,0,0,142.1,4.7Z" transform="translate(-134 -2)" fill="#f73b74"/>
      </g>
      <g id="Group_2" data-name="Group 2" transform="translate(0 18.9)">
        <path id="Path_2" data-name="Path 2" d="M142.1,25.2a8.1,8.1,0,1,1,8.1-8.1A8.11,8.11,0,0,1,142.1,25.2Zm0-13.5a5.4,5.4,0,1,0,5.4,5.4A5.405,5.405,0,0,0,142.1,11.7Z" transform="translate(-134 -9)" fill="#2060f5"/>
      </g>
      <g id="Group_3" data-name="Group 3" transform="translate(18.9 18.9)">
        <path id="Path_3" data-name="Path 3" d="M149.1,25.2a8.1,8.1,0,1,1,8.1-8.1A8.11,8.11,0,0,1,149.1,25.2Zm0-13.5a5.4,5.4,0,1,0,5.4,5.4A5.405,5.405,0,0,0,149.1,11.7Z" transform="translate(-141 -9)" fill="#f73b74" stroke="rgba(0,0,0,0)" stroke-width="1"/>
      </g>
      <g id="Group_4" data-name="Group 4" transform="translate(37.8 18.9)">
        <path id="Path_4" data-name="Path 4" d="M156.1,25.2a8.1,8.1,0,1,1,8.1-8.1A8.11,8.11,0,0,1,156.1,25.2Zm0-13.5a5.4,5.4,0,1,0,5.4,5.4A5.405,5.405,0,0,0,156.1,11.7Z" transform="translate(-148 -9)" fill="#e3df00"/>
      </g>
      <g id="Group_5" data-name="Group 5" transform="translate(37.8)">
        <path id="Path_5" data-name="Path 5" d="M156.1,18.2a8.1,8.1,0,1,1,8.1-8.1A8.11,8.11,0,0,1,156.1,18.2Zm0-13.5a5.4,5.4,0,1,0,5.4,5.4A5.405,5.405,0,0,0,156.1,4.7Z" transform="translate(-148 -2)" fill="#e3e03d"/>
      </g>
      <g id="Group_6" data-name="Group 6" transform="translate(37.8 37.8)">
        <path id="Path_6" data-name="Path 6" d="M156.1,32.2a8.1,8.1,0,1,1,8.1-8.1A8.11,8.11,0,0,1,156.1,32.2Zm0-13.5a5.4,5.4,0,1,0,5.4,5.4A5.405,5.405,0,0,0,156.1,18.7Z" transform="translate(-148 -16)" fill="#f73b74" stroke="rgba(0,0,0,0)" stroke-width="1"/>
      </g>
      <g id="Group_7" data-name="Group 7" transform="translate(0 37.8)">
        <path id="Path_7" data-name="Path 7" d="M142.1,32.2a8.1,8.1,0,1,1,8.1-8.1A8.11,8.11,0,0,1,142.1,32.2Zm0-13.5a5.4,5.4,0,1,0,5.4,5.4A5.405,5.405,0,0,0,142.1,18.7Z" transform="translate(-134 -16)" fill="#2060f5"/>
      </g>
    </g>
  </g>
</svg>
