<svg class="w-8 h-8" id="expanded" xmlns="http://www.w3.org/2000/svg" viewBox="0 0 24 24"><title>hatomi</title><path d="M5,8A3,3,0,1,1,8,5,3,3,0,0,1,5,8ZM5,3A2,2,0,1,0,7,5,2,2,0,0,0,5,3Z" style="fill:#de1662"/><path d="M5,15a3,3,0,1,1,3-3A3,3,0,0,1,5,15Zm0-5a2,2,0,1,0,2,2A2,2,0,0,0,5,10Z" style="fill:#0d23b5"/><path d="M12,15a3,3,0,1,1,3-3A3,3,0,0,1,12,15Zm0-5a2,2,0,1,0,2,2A2,2,0,0,0,12,10Z" style="fill:#de1662"/><path d="M19,15a3,3,0,1,1,3-3A3,3,0,0,1,19,15Zm0-5a2,2,0,1,0,2,2A2,2,0,0,0,19,10Z" style="fill:#e3df00"/><path d="M19,8a3,3,0,1,1,3-3A3,3,0,0,1,19,8Zm0-5a2,2,0,1,0,2,2A2,2,0,0,0,19,3Z" style="fill:#e3df00"/><path d="M19,22a3,3,0,1,1,3-3A3,3,0,0,1,19,22Zm0-5a2,2,0,1,0,2,2A2,2,0,0,0,19,17Z" style="fill:#de1662"/><path d="M5,22a3,3,0,1,1,3-3A3,3,0,0,1,5,22Zm0-5a2,2,0,1,0,2,2A2,2,0,0,0,5,17Z" style="fill:#0d23b5"/></svg>