<svg xmlns="http://www.w3.org/2000/svg" xmlns:xlink="http://www.w3.org/1999/xlink" width="480" height="640" viewBox="0 0 480 640"><defs><clipPath id="a"><rect width="480" height="510" rx="16" fill="#e3df00"/></clipPath><clipPath id="c"><rect width="480" height="640"/></clipPath></defs><g id="b" clip-path="url(#c)"><rect width="480" height="510" rx="16" fill="#919191"/><g clip-path="url(#a)"><circle cx="110" cy="110" r="110" transform="translate(320 160)" fill="#f73b74"/><circle cx="110" cy="110" r="110" transform="translate(-80 -40)" fill="#f73b74"/></g><g transform="translate(20 240)"><path d="M488.659,238.109c-3.537-18.93,2.032-40.466,17.509-51.924a88.726,88.726,0,0,0,18.5,58.04c4.968,6.368,11.157,12.933,10.964,21.007-.12,5.024-2.837,9.7-6.417,13.23s-7.992,6.068-12.35,8.571l-.678,1.055C503.409,273.679,492.2,257.039,488.659,238.109Z" transform="translate(-348.125 -185.82)" fill="#e3df00"/><path d="M510.946,186.33a75.837,75.837,0,0,0-5.006,46.39,32.658,32.658,0,0,0,3.458,9.63,18.731,18.731,0,0,0,7.076,6.864c2.7,1.561,5.644,2.844,7.919,5.034A11.469,11.469,0,0,1,527.769,263c-.109,4.028-1.659,7.776-3.3,11.389-1.824,4.011-3.782,8.149-3.664,12.659.014.546-.834.537-.849-.009-.206-7.846,5.467-14.148,6.731-21.677.59-3.513.124-7.225-2.345-9.949-2.16-2.381-5.194-3.708-7.943-5.264a19.987,19.987,0,0,1-7.169-6.453,30.191,30.191,0,0,1-3.816-9.462,73.576,73.576,0,0,1-1.668-22.935,77.182,77.182,0,0,1,6.472-25.4c.222-.5.949-.058.728.436Z" transform="translate(-352.621 -185.675)" fill="#fff"/><path d="M500.333,240.758a11.378,11.378,0,0,1-11.87-8.727c-.124-.532.7-.75.821-.217a10.536,10.536,0,0,0,11.059,8.1C500.887,239.869,500.875,240.718,500.333,240.758Z" transform="translate(-348.356 -198.677)" fill="#fff"/><path d="M519.516,267.419a21.93,21.93,0,0,0,5.5-15.007c-.012-.546.836-.537.849.009a22.811,22.811,0,0,1-5.752,15.6c-.364.409-.955-.2-.594-.606Z" transform="translate(-357.137 -204.492)" fill="#fff"/><path d="M506.035,209.026a6.44,6.44,0,0,0,5.721-2.148c.358-.413.95.2.594.606a7.217,7.217,0,0,1-6.324,2.39.439.439,0,0,1-.42-.429.426.426,0,0,1,.429-.42Z" transform="translate(-353.223 -191.651)" fill="#fff"/><path d="M580.508,208.044c-.216.264-.433.529-.647.8A84.824,84.824,0,0,0,572.1,220.2c-.181.306-.359.618-.531.929a89.417,89.417,0,0,0-10.433,31.224,86.826,86.826,0,0,0-.8,13.17c.1,6.082.683,12.668-1.181,18.262a14.893,14.893,0,0,1-.671,1.717l-29.915,9.531c-.079-.012-.156-.018-.235-.03l-1.177.435c-.019-.227-.035-.463-.054-.689-.012-.132-.017-.265-.029-.4-.006-.088-.011-.177-.022-.256,0-.029,0-.059,0-.082-.01-.079-.011-.154-.019-.227-.089-1.317-.171-2.637-.24-3.961,0-.007,0-.007,0-.016a127.678,127.678,0,0,1,1.674-30.139c.056-.3.11-.6.18-.9a82.864,82.864,0,0,1,3.664-13.016,73.263,73.263,0,0,1,2.954-6.8,60.913,60.913,0,0,1,11.058-15.507c8.924-9.083,20.655-15.211,33.224-15.4C579.869,208.044,580.184,208.042,580.508,208.044Z" transform="translate(-359.171 -192.02)" fill="#e3df00"/><path d="M580.745,208.271A75.837,75.837,0,0,0,548.818,242.3a32.66,32.66,0,0,0-3.037,9.771,18.73,18.73,0,0,0,1.518,9.74c1.217,2.872,2.794,5.669,3.292,8.787a11.469,11.469,0,0,1-2.573,9.02c-2.512,3.15-6.006,5.21-9.493,7.106-3.871,2.1-7.926,4.229-10.547,7.9-.318.445-.989-.074-.672-.518,4.56-6.389,12.883-8,18.425-13.255,2.586-2.45,4.45-5.694,4.117-9.355-.291-3.2-1.915-6.087-3.172-8.985a19.987,19.987,0,0,1-1.839-9.469,30.192,30.192,0,0,1,2.65-9.852,73.575,73.575,0,0,1,12.477-19.316,77.182,77.182,0,0,1,20.462-16.388c.477-.263.793.525.319.787Z" transform="translate(-359.355 -191.847)" fill="#fff"/><path d="M557.993,243.755a11.378,11.378,0,0,1-4.223-14.115c.221-.5,1.007-.179.786.321a10.536,10.536,0,0,0,3.956,13.122C558.971,243.378,558.45,244.049,557.993,243.755Z" transform="translate(-366.613 -198.076)" fill="#fff"/><path d="M553.981,277.921a21.93,21.93,0,0,0,13.424-8.673c.319-.444.991.075.672.518a22.811,22.811,0,0,1-13.987,9c-.536.107-.643-.735-.109-.842Z" transform="translate(-366.846 -209.335)" fill="#fff"/><path d="M581.474,222.572a6.44,6.44,0,0,0,5.861,1.73c.535-.114.641.728.109.842a7.217,7.217,0,0,1-6.489-1.9.439.439,0,0,1-.077-.6.427.427,0,0,1,.6-.077Z" transform="translate(-374.552 -196.117)" fill="#fff"/><path d="M722.173,383.94a6.76,6.76,0,0,1,.154,1.055l27.629,15.939,6.716-3.866,7.16,9.372-11.223,8a5.145,5.145,0,0,1-6.173-.15l-28.491-22.477a6.752,6.752,0,1,1,4.229-7.873Z" transform="translate(-410.878 -240.44)" fill="#ffb6b6"/><path d="M766.746,403.106a2.891,2.891,0,0,1,1.443-1.93l12.756-6.95a8.038,8.038,0,1,1,9.718,12.806L780.44,417.418a2.894,2.894,0,0,1-4.373-.288l-8.8-11.671a2.891,2.891,0,0,1-.518-2.354Z" transform="translate(-427.283 -244.372)" fill="#3f3d56"/><path d="M797.221,346.182c1.835-5.849,6.009-11.214,11.781-13.191s14.224,1.035,18.564,5.36c7.938,7.911,8.182,17.6,2.729,26.184-1.085-.057-4.828-.1-5.926-.141l-1.553-5.176v5.125c-8.569-.265-17.491-.1-26.417.072C795.6,358.333,795.385,352.03,797.221,346.182Z" transform="translate(-435.546 -227.289)" fill="#2f2e41"/><path d="M497.713,495.993H489.9l-3.718-30.148h11.536Z" transform="translate(-137.917 -132.149)" fill="#ffb6b6"/><path d="M564.96,495.993h-7.816l-3.718-30.148h11.536Z" transform="translate(-156.994 -132.149)" fill="#ffb6b6"/><path d="M524.5,248.04l1.771,4.6-.354,4.605-34.661,12,1.72-20.152,3.9-4.6Z" transform="translate(-139.358 -69.358)" fill="#ffb6b6"/><circle cx="12.379" cy="12.379" r="12.379" transform="translate(361.806 112.487)" fill="#ffb7b7"/><path d="M823.106,464.613v7.867s9.209,11.967,4.25,21.177l14.209,122.557H826.689L801.854,512.784,791.268,614.089h-12.75L777,533.519a171.238,171.238,0,0,1,10.435-62.176h0Z" transform="translate(-430.202 -264.803)" fill="#2f2e41"/><path d="M800.421,336.586a15.549,15.549,0,0,1,23.639,13.57c-6.92.318-14.189.4-21.559.415l-1.742-4.263-1.027,4.266q-3.369,0-6.75-.009A15.876,15.876,0,0,1,800.421,336.586Z" transform="translate(-434.742 -227.84)" fill="#2f2e41"/><path d="M789.311,706.629h-5.546l-.99-5.236-2.535,5.236h-14.71a3.307,3.307,0,0,1-1.879-6.028l11.747-8.113V687.2l12.355.737Z" transform="translate(-426.019 -327.944)" fill="#2f2e41"/><path d="M857.548,706.629H852l-.99-5.236-2.535,5.236h-14.71a3.307,3.307,0,0,1-1.879-6.028l11.746-8.113V687.2l12.355.737Z" transform="translate(-445.376 -327.944)" fill="#2f2e41"/><path d="M829.233,467.516a96.492,96.492,0,0,0-2.1-28.209c-2.629-11.672-5.97-26.524-6.035-26.908a.149.149,0,0,1,0-.023l-1.018-21.755a.251.251,0,0,0-.243-.24l-7.044-.237a.252.252,0,0,1-.243-.251h0a4,4,0,0,0-4-4H794.48a3.741,3.741,0,0,0-3.711,3.275.248.248,0,0,1-.253.224l-5.474-.184a.252.252,0,0,0-.248.176l-.381,1.21a126.753,126.753,0,0,0-4.494,55.049c.663,4.911.362,12.3.112,16.411a3.059,3.059,0,0,0,2.88,3.243c10.177.586,38.992,14.528,45.89,7.871C828.818,473.156,829,470.7,829.233,467.516Z" transform="translate(-430.696 -242.473)" fill="#3f3d56"/><path d="M765.175,383.94a6.775,6.775,0,0,1,.154,1.055l27.629,15.939,6.716-3.866,7.159,9.373-11.224,8a5.145,5.145,0,0,1-6.173-.15l-28.491-22.477a6.752,6.752,0,1,1,4.229-7.873Z" transform="translate(-423.076 -240.44)" fill="#ffb6b6"/><path d="M809.747,403.106a2.891,2.891,0,0,1,1.443-1.93l12.756-6.95a8.038,8.038,0,1,1,9.718,12.806l-10.224,10.386a2.894,2.894,0,0,1-4.373-.288l-8.8-11.671a2.891,2.891,0,0,1-.518-2.354Z" transform="translate(-439.482 -244.372)" fill="#3f3d56"/><circle cx="32.235" cy="32.235" r="32.235" transform="translate(0 271.268)" fill="#ff96b6"/><path d="M612.45,393.066l-233.6,107.25a13.809,13.809,0,0,1-18.29-6.78L302.915,367.977a13.809,13.809,0,0,1,6.78-18.29l233.6-107.25a13.809,13.809,0,0,1,18.29,6.78L619.23,374.776a13.809,13.809,0,0,1-6.78,18.29Z" transform="translate(-295.368 -201.421)" fill="#fff"/><path d="M317.267,361.837a4.486,4.486,0,0,0-2.2,5.942l57.647,125.559a4.486,4.486,0,0,0,5.942,2.2l233.6-107.25a4.486,4.486,0,0,0,2.2-5.942L556.808,256.79a4.486,4.486,0,0,0-5.942-2.2Z" transform="translate(-299.055 -205.108)" fill="#458cff"/><path d="M612.45,393.066l-233.6,107.25a13.809,13.809,0,0,1-18.29-6.78L302.915,367.977a13.809,13.809,0,0,1,6.78-18.29l233.6-107.25a13.809,13.809,0,0,1,18.29,6.78L619.23,374.776a13.809,13.809,0,0,1-6.78,18.29ZM310.292,350.989a12.374,12.374,0,0,0-6.076,16.39l57.646,125.559a12.374,12.374,0,0,0,16.39,6.076l233.6-107.25a12.374,12.374,0,0,0,6.076-16.39L560.282,249.815a12.374,12.374,0,0,0-16.39-6.076Z" transform="translate(-295.368 -201.421)" fill="#cacaca"/><path d="M554.575,335.925l-185.58,85.2a7.985,7.985,0,0,1-9.029-1.678l-54.3-55.682a7.968,7.968,0,0,1,2.37-12.8L545.871,241.333a7.969,7.969,0,0,1,11.25,6.318h.032l2.063,80.831A7.959,7.959,0,0,1,554.575,335.925Zm-8.1-93.3L308.638,352.27a6.535,6.535,0,0,0-1.944,10.5l54.3,55.682a6.549,6.549,0,0,0,7.406,1.376l185.58-85.2a6.528,6.528,0,0,0,3.806-6.106L555.739,248.4l.286-.007-.286.007a6.536,6.536,0,0,0-9.26-5.772Z" transform="translate(-295.863 -201.256)" fill="#cacaca"/><path d="M466.71,531.931,408.89,558.476a3.515,3.515,0,1,1-2.933-6.389l57.819-26.546a3.515,3.515,0,0,1,2.933,6.389Z" transform="translate(-324.373 -281.996)" fill="#fff"/><path d="M537.627,420.053a18.066,18.066,0,0,1-32.836,15.076" transform="translate(-352.992 -252.162)" fill="#cacaca"/><path d="M625.365,625.99H368.323A13.809,13.809,0,0,1,354.53,612.2V474.037a13.809,13.809,0,0,1,13.793-13.793H625.365a13.809,13.809,0,0,1,13.793,13.793V612.2a13.809,13.809,0,0,1-13.793,13.793Z" transform="translate(-310.366 -263.564)" fill="#fff"/><path d="M372.01,473.244a4.486,4.486,0,0,0-4.481,4.481v138.16a4.486,4.486,0,0,0,4.481,4.481H629.053a4.486,4.486,0,0,0,4.481-4.481V477.724a4.486,4.486,0,0,0-4.481-4.481Z" transform="translate(-314.054 -267.251)" fill="#2060f5"/><path d="M625.365,625.99H368.323A13.809,13.809,0,0,1,354.53,612.2V474.037a13.809,13.809,0,0,1,13.793-13.793H625.365a13.809,13.809,0,0,1,13.793,13.793V612.2a13.809,13.809,0,0,1-13.793,13.793ZM368.323,461.677a12.374,12.374,0,0,0-12.36,12.36V612.2a12.374,12.374,0,0,0,12.36,12.36H625.365a12.374,12.374,0,0,0,12.36-12.36V474.037a12.374,12.374,0,0,0-12.36-12.36Z" transform="translate(-310.366 -263.564)" fill="#3f3d56"/><path d="M597.389,549.861h-204.2a7.985,7.985,0,0,1-7.505-5.292L359.567,471.31a7.968,7.968,0,0,1,7.494-10.643l261.886-.4a7.969,7.969,0,0,1,7.588,10.436l.029.013-31.852,74.319a7.958,7.958,0,0,1-7.324,4.829ZM628.958,461.7l-261.9.4a6.535,6.535,0,0,0-6.147,8.729l26.112,73.258a6.549,6.549,0,0,0,6.156,4.341H597.389a6.527,6.527,0,0,0,6.007-3.961l31.569-73.661.263.113-.263-.113a6.536,6.536,0,0,0-6.007-9.11Z" transform="translate(-311.664 -263.569)" fill="#3f3d56"/><path d="M450.382,661.009H386.76a3.515,3.515,0,1,1,0-7.03h63.622a3.515,3.515,0,1,1,0,7.03Z" transform="translate(-318.512 -318.522)" fill="#fff"/><path d="M564.114,584.343a18.066,18.066,0,0,1-36.132,0" transform="translate(-359.57 -298.768)" fill="#3f3d56"/><circle cx="6.447" cy="6.447" r="6.447" transform="translate(83.81 64.967)" fill="#f0f0f0"/><circle cx="6.447" cy="6.447" r="6.447" transform="translate(0 219.693)" fill="#f73b74"/><circle cx="6.447" cy="6.447" r="6.447" transform="translate(322.346 98.634)" fill="#f0f0f0"/><path d="M857,713.649H734.3a.853.853,0,0,1,0-1.706H857a.853.853,0,0,1,0,1.706Z" transform="translate(-417.856 -334.965)" fill="#cacaca"/></g></g></svg>