<svg id="expanded" xmlns="http://www.w3.org/2000/svg" viewBox="0 0 24 24"><title>rocket-duo</title><g style="opacity:0.25"><path d="M6.5,16.5,7,15A15,15,0,0,1,22.5,4.5h0A15,15,0,0,1,12,20l-1.49.46"/></g><path d="M22,2.46A.5.5,0,0,0,21.54,2,15.56,15.56,0,0,0,5.48,12.86L5,14.35a.5.5,0,1,0,1,.3l.46-1.49A14.52,14.52,0,0,1,21,3,14.54,14.54,0,0,1,10.84,17.56L9.35,18a.51.51,0,0,0-.33.63A.51.51,0,0,0,9.5,19l.15,0,1.49-.46A15.56,15.56,0,0,0,22,2.46Z"/><path d="M18,8.5A2.5,2.5,0,1,0,15.5,11,2.5,2.5,0,0,0,18,8.5Zm-4,0A1.5,1.5,0,1,1,15.5,10,1.5,1.5,0,0,1,14,8.5Z"/><path d="M14.1,18.2l-2.78,3.71-1.52-.5.92-.46a.5.5,0,1,0-.44-.9l-2,1a.51.51,0,0,0-.28.49.5.5,0,0,0,.34.43l3,1a.45.45,0,0,0,.16,0,.51.51,0,0,0,.4-.2l3-4a.5.5,0,0,0-.1-.7A.51.51,0,0,0,14.1,18.2Z"/><path d="M3.72,13.05a.51.51,0,0,0-.67.23l-.46.92-.5-1.52L5.8,9.9a.5.5,0,0,0,.1-.7.51.51,0,0,0-.7-.1l-4,3a.5.5,0,0,0-.17.56l1,3a.5.5,0,0,0,.43.34h0A.51.51,0,0,0,3,15.72l1-2A.51.51,0,0,0,3.72,13.05Z"/><path d="M9,17.72l2-4a.5.5,0,0,0-.67-.67l-4,2a.51.51,0,0,0-.23.23l-2,4a.49.49,0,0,0,.1.57A.47.47,0,0,0,4.5,20,.54.54,0,0,0,4.72,20l4-2A.51.51,0,0,0,9,17.72Zm-3.33.66,1.25-2.51,2.51-1.25L8.13,17.13Z"/></svg>